<svg width="1800" height="1100" viewBox="0 0 1800 1100" xmlns="http://www.w3.org/2000/svg">
  <defs>
    <linearGradient id="bg" x1="0" y1="0" x2="1" y2="1">
      <stop offset="0%" stop-color="#efe9de"/>
      <stop offset="100%" stop-color="#f8f6f1"/>
    </linearGradient>
  </defs>
  <rect width="1800" height="1100" fill="url(#bg)"/>
  <text x="64" y="72" fill="#1f2120" font-family="Avenir Next, Helvetica, sans-serif" font-size="34" font-weight="600">Bprop — Command Deck</text>
  <text x="64" y="108" fill="#666054" font-family="Avenir Next, Helvetica, sans-serif" font-size="24">Information déplacée en “panneau opérateur” central + timeline latérale.</text>

  <rect x="52" y="142" width="1696" height="86" rx="20" fill="#faf8f4" stroke="#d8cfbf"/>
  <text x="92" y="195" fill="#292b29" font-family="Avenir Next, Helvetica, sans-serif" font-size="30">LexiAtlas Workspace</text>
  <rect x="1496" y="164" width="220" height="44" rx="22" fill="#efe8da" stroke="#d8cfbf"/>
  <text x="1540" y="194" fill="#4f544e" font-family="Avenir Next, Helvetica, sans-serif" font-size="21">Light / Dark</text>

  <rect x="52" y="252" width="360" height="790" rx="30" fill="#f7f3ea" stroke="#d8cfbf"/>
  <text x="90" y="315" fill="#202321" font-family="Avenir Next, Helvetica, sans-serif" font-size="30" font-weight="600">Timeline dossier</text>
  <text x="90" y="370" fill="#2f3330" font-family="Avenir Next, Helvetica, sans-serif" font-size="22">09:14  Upload jugement</text>
  <text x="90" y="412" fill="#2f3330" font-family="Avenir Next, Helvetica, sans-serif" font-size="22">09:16  Question défense</text>
  <text x="90" y="454" fill="#2f3330" font-family="Avenir Next, Helvetica, sans-serif" font-size="22">09:19  Réponse sourcée</text>
  <text x="90" y="496" fill="#2f3330" font-family="Avenir Next, Helvetica, sans-serif" font-size="22">09:24  Brouillon courrier</text>

  <rect x="434" y="252" width="916" height="790" rx="34" fill="#fbf9f5" stroke="#d8cfbf"/>
  <text x="488" y="320" fill="#1f2120" font-family="IBM Plex Serif, Georgia, serif" font-size="42" font-weight="700">Console de recherche</text>
  <rect x="488" y="350" width="808" height="150" rx="22" fill="#f1eadc"/>
  <text x="526" y="430" fill="#6d675a" font-family="Avenir Next, Helvetica, sans-serif" font-size="35">Posez votre demande. @ pour cibler les sources.</text>
  <text x="526" y="476" fill="#2f3330" font-family="Avenir Next, Helvetica, sans-serif" font-size="24">Mix · Légifrance · Interne · Micro</text>

  <rect x="488" y="526" width="808" height="300" rx="22" fill="#fff" stroke="#e0d8ca"/>
  <text x="526" y="588" fill="#2c2f2c" font-family="Avenir Next, Helvetica, sans-serif" font-size="25">Réponse IA orientée décision</text>
  <text x="526" y="632" fill="#2c2f2c" font-family="Avenir Next, Helvetica, sans-serif" font-size="22">• Base légale</text>
  <text x="526" y="674" fill="#2c2f2c" font-family="Avenir Next, Helvetica, sans-serif" font-size="22">• Jurisprudence clé</text>
  <text x="526" y="716" fill="#2c2f2c" font-family="Avenir Next, Helvetica, sans-serif" font-size="22">• Point faible adverse</text>

  <rect x="488" y="850" width="260" height="70" rx="16" fill="#efe8da" stroke="#d8cfbf"/>
  <text x="530" y="895" fill="#2d312e" font-family="Avenir Next, Helvetica, sans-serif" font-size="24">Vers courrier</text>
  <rect x="768" y="850" width="260" height="70" rx="16" fill="#efe8da" stroke="#d8cfbf"/>
  <text x="822" y="895" fill="#2d312e" font-family="Avenir Next, Helvetica, sans-serif" font-size="24">Vers note</text>
  <rect x="1048" y="850" width="248" height="70" rx="16" fill="#efe8da" stroke="#d8cfbf"/>
  <text x="1088" y="895" fill="#2d312e" font-family="Avenir Next, Helvetica, sans-serif" font-size="24">Sauver KB</text>

  <rect x="1372" y="252" width="376" height="790" rx="30" fill="#1b2230"/>
  <text x="1412" y="318" fill="#eef3fb" font-family="Avenir Next, Helvetica, sans-serif" font-size="30" font-weight="600">Dark Mode Preview</text>
  <rect x="1412" y="350" width="296" height="140" rx="16" fill="#2a3447"/>
  <text x="1438" y="426" fill="#cad8ea" font-family="Avenir Next, Helvetica, sans-serif" font-size="23">Même structure, contraste élevé.</text>
  <rect x="1412" y="520" width="296" height="260" rx="16" fill="#232c3b"/>
  <text x="1438" y="584" fill="#d8e3f2" font-family="Avenir Next, Helvetica, sans-serif" font-size="21">Raccourcis clavier</text>
  <text x="1438" y="626" fill="#d8e3f2" font-family="Avenir Next, Helvetica, sans-serif" font-size="21">Actions production</text>
</svg>
