<svg width="1600" height="1000" viewBox="0 0 1600 1000" xmlns="http://www.w3.org/2000/svg">
  <defs>
    <linearGradient id="bg" x1="0" y1="0" x2="1" y2="1">
      <stop offset="0%" stop-color="#f4f4f2"/>
      <stop offset="100%" stop-color="#ecebe8"/>
    </linearGradient>
    <filter id="shadow" x="-20%" y="-20%" width="140%" height="140%">
      <feDropShadow dx="0" dy="8" stdDeviation="16" flood-opacity="0.12"/>
    </filter>
  </defs>
  <rect width="1600" height="1000" fill="url(#bg)"/>
  <rect x="0" y="0" width="92" height="1000" fill="#f0efec"/>
  <circle cx="46" cy="46" r="24" fill="#1f1f1f"/>
  <text x="46" y="53" text-anchor="middle" fill="#fff" font-family="Avenir Next, Helvetica, sans-serif" font-size="18">L</text>
  <rect x="26" y="130" width="40" height="40" rx="10" fill="#dfddd8"/>
  <rect x="26" y="184" width="40" height="40" rx="10" fill="#dfddd8"/>
  <rect x="26" y="238" width="40" height="40" rx="10" fill="#dfddd8"/>
  <rect x="26" y="840" width="40" height="40" rx="10" fill="#d2d0cb"/>
  <rect x="26" y="894" width="40" height="40" rx="10" fill="#d2d0cb"/>
  <text x="140" y="74" fill="#1f1f1f" font-family="Avenir Next, Helvetica, sans-serif" font-size="28" font-weight="600">LexiAtlas Workspace</text>
  <text x="140" y="105" fill="#66635f" font-family="Avenir Next, Helvetica, sans-serif" font-size="20">Assistant de recherche</text>
  <rect x="220" y="170" width="1160" height="208" rx="28" fill="#f9f8f6" stroke="#d8d5cf" filter="url(#shadow)"/>
  <text x="280" y="245" fill="#7a7771" font-family="Avenir Next, Helvetica, sans-serif" font-size="44">Posez une question juridique, type @ pour sources…</text>
  <text x="280" y="325" fill="#2f2d2a" font-family="Avenir Next, Helvetica, sans-serif" font-size="30">Fichiers   Sources   Mix   Légifrance</text>
  <circle cx="1310" cy="316" r="21" fill="none" stroke="#2e2d2a" stroke-width="3"/>
  <line x1="1299" y1="316" x2="1322" y2="316" stroke="#2e2d2a" stroke-width="3"/>
  <line x1="1310" y1="304" x2="1310" y2="327" stroke="#2e2d2a" stroke-width="3"/>
  <rect x="220" y="425" width="820" height="470" rx="24" fill="#faf9f7" stroke="#d8d5cf"/>
  <text x="258" y="477" fill="#1f1f1f" font-family="IBM Plex Serif, Georgia, serif" font-size="30" font-weight="700">Réponse sourcée</text>
  <text x="258" y="528" fill="#44413d" font-family="Avenir Next, Helvetica, sans-serif" font-size="24">• Cass. civ. 1, 12.01.2024, n°22-14.118</text>
  <text x="258" y="568" fill="#44413d" font-family="Avenir Next, Helvetica, sans-serif" font-size="24">• Art. 1240 C. civ. — faute + préjudice + causalité</text>
  <text x="258" y="608" fill="#44413d" font-family="Avenir Next, Helvetica, sans-serif" font-size="24">• Risques probatoires: moyens faibles sur le lien direct</text>
  <rect x="258" y="650" width="742" height="205" rx="16" fill="#f0eeea"/>
  <text x="290" y="700" fill="#2f2d2a" font-family="Avenir Next, Helvetica, sans-serif" font-size="22">Synthèse opératoire prête pour production documentaire.</text>
  <text x="290" y="742" fill="#2f2d2a" font-family="Avenir Next, Helvetica, sans-serif" font-size="22">Boutons: “Transformer en courrier” / “Transformer en note”.</text>
  <rect x="1080" y="425" width="300" height="470" rx="24" fill="#f9f8f6" stroke="#d8d5cf"/>
  <text x="1115" y="477" fill="#1f1f1f" font-family="Avenir Next, Helvetica, sans-serif" font-size="28" font-weight="600">Recherches récentes</text>
  <line x1="1115" y1="507" x2="1346" y2="507" stroke="#d8d5cf"/>
  <text x="1115" y="555" fill="#2e2d2a" font-family="Avenir Next, Helvetica, sans-serif" font-size="22">Clause pénale — 15:42</text>
  <text x="1115" y="600" fill="#2e2d2a" font-family="Avenir Next, Helvetica, sans-serif" font-size="22">Responsabilité du fait d’autrui</text>
  <text x="1115" y="645" fill="#2e2d2a" font-family="Avenir Next, Helvetica, sans-serif" font-size="22">Rupture brutale des relations</text>
  <text x="1115" y="690" fill="#2e2d2a" font-family="Avenir Next, Helvetica, sans-serif" font-size="22">Conclusions d’appel - délai</text>
  <text x="220" y="955" fill="#6a6660" font-family="Avenir Next, Helvetica, sans-serif" font-size="20">Option A — Harvey Minimal: gris chaud, tension faible, lisibilité maximale.</text>
</svg>
